<?xml version="1.0" standalone="no"?>
<!DOCTYPE svg PUBLIC "-//W3C//DTD SVG 1.1//EN"
"http://www.w3.org/Graphics/SVG/1.1/DTD/svg11.dtd">

<svg width="320" height="136" view_box="0 0 320 136"
xmlns="http://www.w3.org/2000/svg"
xmlns:link="http://www.w3.org/1999/xlink">\n\n<desc>Généré par Mocodo 2.3.7 le Tue, 07 Dec 2021 03:55:57</desc>

<rect id="frame" x="0" y="0" width="320" height="136" fill="#ffffbf" stroke="none" stroke-width="0"/>

<!-- Association APPARTIENT -->
<line x1="270" y1="68" x2="151" y2="68" stroke="#f46d43" stroke-width="2"/>
<text x="202" y="85.0" fill="#3288bd" font-family="Verdana" font-size="12">0,N</text>
<line x1="41" y1="68" x2="151" y2="68" stroke="#f46d43" stroke-width="2"/>
<text x="78" y="85.0" fill="#3288bd" font-family="Verdana" font-size="12">1,1</text>
<g id="association-APPARTIENT">
	<path d="M 183 43 a 14 14 90 0 1 14 14 V 68 h -92 V 57 a 14 14 90 0 1 14 -14" fill="#fdae61" stroke="#fdae61" stroke-width="0"/>
	<path d="M 197 68.0 v 11 a 14 14 90 0 1 -14 14 H 119 a 14 14 90 0 1 -14 -14 V 68.0 H 92" fill="#fee08b" stroke="#fee08b" stroke-width="0"/>
	<rect x="105" y="43" width="92" height="50" fill="none" rx="14" stroke="#f46d43" stroke-width="2"/>
	<line x1="105" y1="68" x2="197" y2="68" stroke="#f46d43" stroke-width="1"/>
	<text x="112" y="60.7" fill="#000000" font-family="Verdana" font-size="12">APPARTIENT</text>
</g>

<!-- Entity POST -->
<g id="entity-POST">
	<g id="frame-POST">
		<rect x="9" y="9" width="64" height="25" fill="#abdda4" stroke="#abdda4" stroke-width="0"/>
		<rect x="9" y="34.0" width="64" height="93" fill="#e6f598" stroke="#e6f598" stroke-width="0"/>
		<rect x="9" y="9" width="64" height="118" fill="none" stroke="#66c2a5" stroke-width="2"/>
		<line x1="9" y1="34" x2="73" y2="34" stroke="#66c2a5" stroke-width="1"/>
	</g>
	<text x="24" y="26.7" fill="#000000" font-family="Verdana" font-size="12">POST</text>
	<text x="14" y="51.7" fill="#000000" font-family="Verdana" font-size="12">category</text>
	<line x1="14" y1="54" x2="67" y2="54" stroke="#000000" stroke-width="1"/>
	<text x="14" y="68.8" fill="#000000" font-family="Verdana" font-size="12">slug</text>
	<text x="14" y="85.8" fill="#000000" font-family="Verdana" font-size="12">title</text>
	<text x="14" y="102.8" fill="#000000" font-family="Verdana" font-size="12">excerpt</text>
	<text x="14" y="119.8" fill="#000000" font-family="Verdana" font-size="12">content</text>
</g>

<!-- Entity CATEGORIE -->
<g id="entity-CATEGORIE">
	<g id="frame-CATEGORIE">
		<rect x="229" y="34" width="82" height="25" fill="#abdda4" stroke="#abdda4" stroke-width="0"/>
		<rect x="229" y="59.0" width="82" height="43" fill="#e6f598" stroke="#e6f598" stroke-width="0"/>
		<rect x="229" y="34" width="82" height="68" fill="none" stroke="#66c2a5" stroke-width="2"/>
		<line x1="229" y1="59" x2="311" y2="59" stroke="#66c2a5" stroke-width="1"/>
	</g>
	<text x="234" y="51.7" fill="#000000" font-family="Verdana" font-size="12">CATEGORIE</text>
	<text x="234" y="76.8" fill="#000000" font-family="Verdana" font-size="12">route</text>
	<line x1="234" y1="79" x2="267" y2="79" stroke="#000000" stroke-width="1"/>
	<text x="234" y="93.8" fill="#000000" font-family="Verdana" font-size="12">label</text>
</g>
</svg>